<svg width="1112" height="487" viewBox="0 0 1112 487" fill="none" xmlns="http://www.w3.org/2000/svg">
<path d="M54.1452 0.000110366C54.1452 0.000110366 51.3338 42.5086 33.7032 121.048C16.0725 199.587 0 241.658 0 241.658H108.363C123.508 175.564 139.016 83.1009 139.016 83.1009C139.016 83.1009 155.102 191.272 171.002 241.658H280.108C280.108 241.658 262.531 199.016 242.725 121.048C222.92 43.0722 218.603 0.000110366 218.603 0.000110366H54.1452Z" fill="white"/>
<path d="M483.434 0C484.071 3.79268 484.668 7.5787 485.225 11.3648L483.05 0C483.05 0 447.49 120.829 403.994 167.057C403.994 168.443 403.994 169.809 403.994 171.168C400.937 125.357 400.513 62.6787 411.924 0H302.075C302.075 0 308.706 42.5085 308.706 121.048C308.706 199.587 302.075 241.657 302.075 241.657H411.924C411.924 241.657 411.871 241.359 411.771 240.796C441.357 129.574 483.952 65.2712 490.198 56.2139C497.856 155.659 483.434 241.657 483.434 241.657H593.283C593.283 241.657 586.652 199.587 586.652 121.048C586.652 42.5085 593.283 0 593.283 0H483.434Z" fill="white"/>
<path d="M1049.1 0H884.65C884.65 0 881.759 42.5085 864.155 121.048C846.557 199.587 830.498 241.657 830.498 241.657H938.861C942.143 227.342 944.61 215.168 947.76 199.587C957.725 196.285 982.769 195.562 990.666 199.587C994.432 216.952 997.502 228.973 1001.5 241.657H1110.61C1110.61 241.657 1093.27 199.587 1073.28 121.048C1053.35 42.7605 1049.1 0 1049.1 0ZM955.723 159.79C963.706 117.752 969.521 83.1074 969.521 83.1074C969.521 83.1074 975.024 119.072 982.775 159.883C975.309 161.852 965.191 161.852 955.723 159.79Z" fill="white"/>
<path d="M715.517 98.8617C715.517 98.8617 715.517 98.8484 715.517 98.8418C713.694 179.019 725.092 241.664 725.092 241.664H615.243C615.243 241.664 621.874 199.593 621.874 121.054C621.874 42.5152 615.243 0.00663704 615.243 0.00663704H842.599C842.599 0.00663704 835.968 17.5378 835.968 49.1524C835.968 80.7669 842.599 98.8683 842.599 98.8683C842.599 98.8683 824.796 92.2377 779.608 92.2377C734.421 92.2377 715.517 98.8683 715.517 98.8683V98.8617Z" fill="white"/>
<rect y="277.197" width="1111.65" height="209.251" fill="white"/>
<path d="M998.198 311.234H1018.51C1018.51 312.94 1019.31 314.379 1020.9 315.552C1022.5 316.831 1024.42 317.471 1026.66 317.471C1028.9 317.471 1030.82 316.831 1032.42 315.552C1034.02 314.379 1034.82 312.94 1034.82 311.234H1055.12C1055.12 318.27 1052.46 324.24 1047.13 329.144C1041.69 334.048 1034.92 336.5 1026.82 336.5C1018.51 336.5 1011.68 334.048 1006.35 329.144C1000.92 324.24 998.198 318.27 998.198 311.234ZM987.164 343.216H1014.35V385.431C1014.35 389.162 1015.52 392.147 1017.87 394.386C1020.21 396.731 1023.14 397.904 1026.66 397.904C1030.07 397.904 1032.95 396.731 1035.3 394.386C1037.64 392.147 1038.81 389.162 1038.81 385.431V343.216H1066V423.169H1040.73V417.253C1040.31 417.679 1039.88 418.106 1039.45 418.532C1039.13 418.852 1038.76 419.172 1038.33 419.491C1033.86 423.223 1028.05 425.088 1020.9 425.088C1010.24 425.088 1001.98 421.25 996.119 413.575C993.134 409.844 990.895 405.526 989.403 400.622C987.91 395.612 987.164 390.122 987.164 384.152V343.216Z" fill="#231F20"/>
<path d="M894.719 343.217H921.903V385.432C921.903 389.163 923.076 392.148 925.421 394.387C927.766 396.732 930.698 397.905 934.216 397.905C937.627 397.905 940.505 396.732 942.851 394.387C945.196 392.148 946.369 389.163 946.369 385.432V343.217H973.553V423.17H948.288V417.254C947.861 417.68 947.435 418.107 947.008 418.533C946.689 418.853 946.315 419.173 945.889 419.492C941.412 423.224 935.602 425.089 928.459 425.089C917.799 425.089 909.537 421.251 903.674 413.576C900.689 409.845 898.45 405.527 896.957 400.623C895.465 395.613 894.719 390.123 894.719 384.153V343.217Z" fill="#231F20"/>
<path d="M809.477 423.17V343.217H836.661V369.601H853.931V343.217H881.115V423.17H853.931V396.786H836.661V423.17H809.477Z" fill="#231F20"/>
<path d="M800.688 392.785H749.838C750.478 393.425 751.117 394.011 751.757 394.544C752.503 395.077 753.249 395.503 753.995 395.823C756.447 397.209 759.112 397.902 761.991 397.902C767.108 397.902 771.105 396.463 773.984 393.584L793.173 412.773C785.071 420.982 774.677 425.086 761.991 425.086C750.371 425.086 740.243 420.982 731.608 412.773C722.867 404.565 718.496 394.704 718.496 383.191C718.496 371.571 722.6 361.656 730.809 353.448C738.911 345.346 748.772 341.295 760.392 341.295C771.372 341.295 780.913 345.399 789.015 353.608C796.797 361.283 800.688 371.144 800.688 383.191V392.785ZM759.752 366.88C757.087 366.88 754.742 367.52 752.716 368.799C751.437 369.652 750.264 370.718 749.198 371.997H770.146C768.973 370.505 767.641 369.332 766.148 368.479C764.336 367.413 762.204 366.88 759.752 366.88Z" fill="#231F20"/>
<path d="M636.199 343.217H663.383V367.203C663.383 370.081 664.396 372.533 666.422 374.559C668.447 376.584 670.899 377.597 673.777 377.597H680.973V343.217H708.157V423.17H680.973V404.781H673.777C662.371 404.781 653.256 401.156 646.433 393.907C639.611 386.658 636.199 377.757 636.199 367.203V343.217Z" fill="#231F20"/>
<path d="M517.617 340.855H544.801V369.601H548.159C550.185 363.631 553.596 358.301 558.393 353.611C566.495 345.402 576.356 341.298 587.976 341.298C599.596 341.298 609.457 345.402 617.559 353.611C625.768 361.713 629.872 371.573 629.872 383.193C629.872 394.813 625.768 404.674 617.559 412.776C609.457 420.985 599.596 425.089 587.976 425.089C576.356 425.089 566.495 420.985 558.393 412.776C553.596 408.086 550.185 402.755 548.159 396.785H544.801V423.17H517.617V340.855ZM587.976 368.482C583.925 368.482 580.461 369.921 577.582 372.799C574.704 375.678 573.265 379.142 573.265 383.193C573.265 387.244 574.704 390.709 577.582 393.587C580.461 396.466 583.925 397.905 587.976 397.905C592.027 397.905 595.492 396.466 598.37 393.587C599.863 392.201 600.929 390.656 601.568 388.95C602.315 387.138 602.688 385.219 602.688 383.193C602.688 379.142 601.249 375.678 598.37 372.799C595.492 369.921 592.027 368.482 587.976 368.482Z" fill="#231F20"/>
<path d="M420.023 423.17L451.365 343.217H480.468L511.81 423.17H482.707L465.917 380.315L449.127 423.17H420.023Z" fill="#231F20"/>
<path d="M332.41 423.17V343.324H359.594V367.363L381.182 343.217H417.641L385.339 379.196L417.641 423.17H383.9L366.79 399.824L359.594 407.979V423.17H332.41Z" fill="#231F20"/>
<path d="M239.16 343.217H266.344V385.432C266.344 389.163 267.517 392.148 269.862 394.387C272.208 396.732 275.139 397.905 278.657 397.905C282.069 397.905 284.947 396.732 287.292 394.387C289.637 392.148 290.81 389.163 290.81 385.432V343.217H317.994V423.17H292.729V417.254C292.303 417.68 291.876 418.107 291.45 418.533C291.13 418.853 290.757 419.173 290.33 419.492C285.853 423.224 280.043 425.089 272.901 425.089C262.24 425.089 253.978 421.251 248.115 413.576C245.13 409.845 242.891 405.527 241.399 400.623C239.906 395.613 239.16 390.123 239.16 384.153V343.217Z" fill="#231F20"/>
<path d="M168.393 343.214V348.491C168.713 348.171 169.032 347.904 169.352 347.691C169.779 347.371 170.152 347.105 170.472 346.892C175.695 343.16 182.091 341.295 189.66 341.295C201.067 341.295 210.608 345.346 218.284 353.448C225.853 361.55 229.637 371.464 229.637 383.191C229.637 394.917 225.853 404.831 218.284 412.933C210.608 421.035 201.067 425.086 189.66 425.086C183.584 425.086 178.2 423.7 173.51 420.929C173.19 420.715 172.87 420.555 172.55 420.449C172.337 420.236 172.124 420.076 171.911 419.969V455.149H144.727V343.214H168.393ZM186.942 398.222C191.1 398.222 194.671 396.729 197.656 393.744C200.534 390.866 201.973 387.348 201.973 383.191C201.973 379.033 200.534 375.462 197.656 372.477C194.671 369.598 191.1 368.159 186.942 368.159C182.784 368.159 179.266 369.598 176.388 372.477C173.403 375.462 171.911 379.033 171.911 383.191C171.911 387.348 173.403 390.866 176.388 393.744C179.266 396.729 182.784 398.222 186.942 398.222Z" fill="#231F20"/>
<path d="M130.311 423.167H103.127V380.952C103.127 377.221 101.954 374.236 99.6085 371.997C97.2632 369.652 94.3849 368.479 90.9736 368.479C87.4556 368.479 84.524 369.652 82.1787 371.997C79.8334 374.236 78.6607 377.221 78.6607 380.952V423.167H51.4766V343.214H76.7419V349.13C77.1683 348.704 77.5414 348.331 77.8612 348.011C78.2876 347.585 78.714 347.211 79.1405 346.892C83.6179 343.16 89.4811 341.295 96.7302 341.295C107.284 341.295 115.546 345.079 121.516 352.648C124.394 356.486 126.58 360.91 128.072 365.921C129.564 370.824 130.311 376.261 130.311 382.231V423.167Z" fill="#231F20"/>
</svg>
